<?xml version="1.0"?>
<svg xmlns="http://www.w3.org/2000/svg" viewBox="0 0 24 24" fill-rule="evenodd" clip-rule="evenodd" stroke-linejoin="round" stroke-miterlimit="1.414">
    <path d="M 5.8710938 2.0019531 C 5.6460937 2.0109531 5.42775 2.0517656 5.21875 2.1347656 C 4.71275 2.3347656 4.3041875 2.7507187 4.1171875 3.2617188 C 4.0451875 3.4577187 4.0099531 3.6620937 4.0019531 3.8710938 C 4.0169531 9.2920938 3.9909531 14.712859 4.0019531 20.130859 C 4.0099531 20.339859 4.0451875 20.545188 4.1171875 20.742188 C 4.3041875 21.252188 4.71275 21.668187 5.21875 21.867188 C 5.42775 21.950187 5.6460938 21.992953 5.8710938 22.001953 C 8.5800937 22.000953 11.291 21.994141 14 21.994141 L 14 20.001953 L 6.0019531 20.001953 L 6.0019531 4.0019531 L 18.001953 4.0019531 L 18.001953 13.001953 L 19.982422 13.001953 C 19.979422 9.9659531 19.984953 6.9210937 20.001953 3.8710938 C 19.993953 3.6620938 19.956766 3.4577188 19.884766 3.2617188 C 19.697766 2.7507188 19.291156 2.3347656 18.785156 2.1347656 C 18.576156 2.0517656 18.355859 2.0109531 18.130859 2.0019531 C 14.055859 1.9979531 9.9690937 1.9999531 5.8710938 2.0019531 z M 12 6 A 2 2 0 0 0 10 8 A 2 2 0 0 0 12 10 A 2 2 0 0 0 14 8 A 2 2 0 0 0 12 6 z M 11.982422 11 C 9.5934219 11 9 12.5 9 12.5 L 9 14 L 15 14 L 15 12.5 C 15 12.5 14.372422 11 11.982422 11 z M 17 15.001953 L 17 19.001953 L 15 19.001953 L 18 22.001953 L 21 19.001953 L 19 19.001953 L 19 15.001953 L 17 15.001953 z"/>
</svg>
